<svg width="374" height="99" viewBox="0 0 374 99" fill="none" xmlns="http://www.w3.org/2000/svg">
<path opacity="0.3" d="M87 -2L89.1607 3.83927L95 6L89.1607 8.16073L87 14L84.8393 8.16073L79 6L84.8393 3.83927L87 -2Z" fill="#6B81CE"/>
<path opacity="0.3" d="M178 69L180.161 74.8393L186 77L180.161 79.1607L178 85L175.839 79.1607L170 77L175.839 74.8393L178 69Z" fill="#6B81CE"/>
<path opacity="0.3" d="M366 63L368.161 68.8393L374 71L368.161 73.1607L366 79L363.839 73.1607L358 71L363.839 68.8393L366 63Z" fill="#6B81CE"/>
<path opacity="0.5" d="M365.824 69.6543C365.515 71.5832 363.988 73.344 361.296 74.9215C358.607 76.4974 354.784 77.8735 349.943 79.0413C340.261 81.3765 326.545 82.87 309.783 83.483C276.261 84.7088 230.583 82.4118 180.697 76.3003C130.811 70.1887 86.1684 61.4206 54.3199 52.1861C38.3945 47.5686 25.6748 42.8364 17.0988 38.2645C12.8101 35.9782 9.5659 33.7363 7.47524 31.5749C5.38239 29.4112 4.46657 27.3511 4.77525 25.4222C4.92827 24.466 5.48233 23.5096 6.43181 22.5583C7.3814 21.6069 8.71942 20.6678 10.4237 19.7483C13.8323 17.9091 18.6823 16.1601 24.7535 14.5454C36.8939 11.3165 53.8872 8.63235 73.9242 6.82853C113.997 3.221 166.222 3.13645 216.103 9.24728C265.982 15.3581 304.067 26.5065 329.359 38.1183C342.005 43.9246 351.447 49.8442 357.566 55.3035C360.625 58.0333 362.849 60.6441 364.228 63.0638C365.607 65.4841 366.136 67.7027 365.824 69.6543Z" stroke="#BF5D6C" stroke-width="0.3"/>
</svg>
